# xmcd
#
# Track frame offsets:
#	150
#	15000
#	33650
#	48800
#	60137
#	82587
#	100512
#	120897
#	139625
#	159362
#	178290
#	193527
#	206361
#	216386
#	236861
#	252419
#
# Disc length: 3608 seconds
#
# Revision: 1
# Processed by: cddbd v1.5.2PL0 Copyright (c) Steve Scherf et al.
# Submitted via: audiograbber 1.83.01
#
DISCID=bf0e1610
DTITLE=Div - Sex Love Music
DYEAR=2007
DGENRE=Ballad
TTITLE0=Romeo And Juliet
TTITLE1=The Shadow Of Your Smile
TTITLE2=Honey
TTITLE3=For Elise
TTITLE4=My Heart Will Go On
TTITLE5=The Heart Is Too Soft
TTITLE6=Prayer
TTITLE7=Snowing
TTITLE8=Between Wake And Dream
TTITLE9=Tear Of Lover
TTITLE10=Les Fleurs Sauvages
TTITLE11=Souvenir D'enfance
TTITLE12=Bo Lamu Zi Xiao Ye Qu
TTITLE13=Thank You For Your Love
TTITLE14=The Moon Portrays My Heart
TTITLE15=Wang Shi
EXTD=
EXTT0=
EXTT1=
EXTT2=
EXTT3=
EXTT4=
EXTT5=
EXTT6=
EXTT7=
EXTT8=
EXTT9=
EXTT10=
EXTT11=
EXTT12=
EXTT13=
EXTT14=
EXTT15=
PLAYORDER=
